<svg width="72" height="14" viewBox="0 0 72 14" fill="none" xmlns="http://www.w3.org/2000/svg">
<rect width="72" height="14" rx="1" fill="white"/>
<path d="M4.25564 10.8889C4.18463 10.8889 4.12427 10.863 4.07456 10.8111C4.02485 10.7593 4 10.6963 4 10.6222V3.38889C4 3.30741 4.02485 3.24074 4.07456 3.18889C4.12427 3.13704 4.18463 3.11111 4.25564 3.11111H9.1342C9.21231 3.11111 9.27267 3.13704 9.31528 3.18889C9.36499 3.24074 9.38985 3.30741 9.38985 3.38889V4.16667C9.38985 4.24074 9.36499 4.3037 9.31528 4.35556C9.27267 4.40741 9.21231 4.43333 9.1342 4.43333H5.48061V6.21111H7.28078C8.08322 6.21111 8.71168 6.41852 9.16616 6.83333C9.62064 7.24815 9.84788 7.81111 9.84788 8.52222C9.84788 8.82593 9.79107 9.12222 9.67745 9.41111C9.57093 9.69259 9.41115 9.94444 9.19811 10.1667C8.98507 10.3889 8.71878 10.5667 8.39922 10.7C8.07967 10.8259 7.70685 10.8889 7.28078 10.8889H4.25564ZM5.48061 9.71111H7.13165C7.38729 9.71111 7.60388 9.65556 7.78141 9.54444C7.95894 9.43333 8.09387 9.28519 8.18618 9.1C8.2785 8.91481 8.32466 8.71481 8.32466 8.5C8.32466 8.17407 8.22524 7.9037 8.02641 7.68889C7.82757 7.47407 7.52932 7.36667 7.13165 7.36667H5.48061V9.71111Z" fill="#06609A"/>
<path d="M11.1627 10.8889C11.0917 10.8889 11.0313 10.863 10.9816 10.8111C10.9319 10.7593 10.9071 10.6963 10.9071 10.6222V3.38889C10.9071 3.30741 10.9319 3.24074 10.9816 3.18889C11.0313 3.13704 11.0917 3.11111 11.1627 3.11111H15.8495C15.9277 3.11111 15.9916 3.13704 16.0413 3.18889C16.091 3.24074 16.1158 3.30741 16.1158 3.38889V4.12222C16.1158 4.1963 16.091 4.25926 16.0413 4.31111C15.9916 4.36296 15.9277 4.38889 15.8495 4.38889H12.3451V6.35556H15.6152C15.6933 6.35556 15.7572 6.38148 15.8069 6.43333C15.8566 6.47778 15.8815 6.54074 15.8815 6.62222V7.31111C15.8815 7.39259 15.8566 7.45926 15.8069 7.51111C15.7572 7.55556 15.6933 7.57778 15.6152 7.57778H12.3451V9.61111H15.9348C16.0129 9.61111 16.0768 9.63704 16.1265 9.68889C16.1762 9.74074 16.201 9.80741 16.201 9.88889V10.6222C16.201 10.6963 16.1762 10.7593 16.1265 10.8111C16.0768 10.863 16.0129 10.8889 15.9348 10.8889H11.1627Z" fill="#06609A"/>
<path d="M20.4093 11C19.7489 11 19.1879 10.8815 18.7263 10.6444C18.2718 10.4 17.9239 10.0556 17.6824 9.61111C17.441 9.15926 17.306 8.61852 17.2776 7.98889C17.2705 7.68519 17.267 7.35926 17.267 7.01111C17.267 6.66296 17.2705 6.32963 17.2776 6.01111C17.306 5.38889 17.441 4.85185 17.6824 4.4C17.931 3.94815 18.2825 3.6037 18.7369 3.36667C19.1985 3.12222 19.756 3 20.4093 3C20.8922 3 21.3253 3.06667 21.7088 3.2C22.0923 3.33333 22.4189 3.51852 22.6888 3.75556C22.9586 3.98519 23.1681 4.25556 23.3172 4.56667C23.4664 4.87778 23.5445 5.21482 23.5516 5.57778C23.5587 5.64444 23.5374 5.7 23.4877 5.74444C23.4451 5.78889 23.3918 5.81111 23.3279 5.81111H22.316C22.2379 5.81111 22.1739 5.79259 22.1242 5.75556C22.0745 5.71111 22.039 5.64074 22.0177 5.54444C21.9041 5.05556 21.7088 4.72222 21.4319 4.54444C21.1549 4.36667 20.8105 4.27778 20.3986 4.27778C19.9229 4.27778 19.5429 4.41852 19.2589 4.7C18.9748 4.97407 18.8222 5.42963 18.8009 6.06667C18.7795 6.67407 18.7795 7.2963 18.8009 7.93333C18.8222 8.57037 18.9748 9.02963 19.2589 9.31111C19.5429 9.58519 19.9229 9.72222 20.3986 9.72222C20.8105 9.72222 21.1549 9.63333 21.4319 9.45556C21.7088 9.27037 21.9041 8.93704 22.0177 8.45556C22.039 8.35185 22.0745 8.28148 22.1242 8.24444C22.1739 8.20741 22.2379 8.18889 22.316 8.18889H23.3279C23.3918 8.18889 23.4451 8.21111 23.4877 8.25556C23.5374 8.3 23.5587 8.35556 23.5516 8.42222C23.5445 8.78519 23.4664 9.12222 23.3172 9.43333C23.1681 9.74444 22.9586 10.0185 22.6888 10.2556C22.4189 10.4852 22.0923 10.6667 21.7088 10.8C21.3253 10.9333 20.8922 11 20.4093 11Z" fill="#06609A"/>
<path d="M25.0705 10.8889C24.9995 10.8889 24.9391 10.8667 24.8894 10.8222C24.8397 10.7704 24.8148 10.7037 24.8148 10.6222V3.38889C24.8148 3.30741 24.8397 3.24074 24.8894 3.18889C24.9391 3.13704 24.9995 3.11111 25.0705 3.11111H30.6521C30.7302 3.11111 30.7941 3.13704 30.8438 3.18889C30.8935 3.24074 30.9184 3.30741 30.9184 3.38889V10.6222C30.9184 10.6963 30.8935 10.7593 30.8438 10.8111C30.7941 10.863 30.7302 10.8889 30.6521 10.8889H29.6934C29.6224 10.8889 29.562 10.863 29.5123 10.8111C29.4626 10.7593 29.4377 10.6963 29.4377 10.6222V4.5H26.2954V10.6222C26.2954 10.6963 26.2706 10.7593 26.2209 10.8111C26.1783 10.863 26.1179 10.8889 26.0398 10.8889H25.0705Z" fill="#06609A"/>
<path d="M37.5067 10.8889C37.4357 10.8889 37.3753 10.863 37.3256 10.8111C37.2759 10.7593 37.2511 10.6963 37.2511 10.6222V4.5H34.9396V5.9C34.9396 6.78889 34.8934 7.54815 34.8011 8.17778C34.7159 8.80741 34.5739 9.31852 34.375 9.71111C34.1762 10.0963 33.9064 10.3852 33.5655 10.5778C33.2246 10.763 32.7986 10.863 32.2873 10.8778C32.2163 10.8852 32.1524 10.863 32.0955 10.8111C32.0458 10.7519 32.021 10.6852 32.021 10.6111V9.77778C32.021 9.62222 32.1027 9.53333 32.266 9.51111C32.479 9.47407 32.6601 9.37037 32.8092 9.2C32.9655 9.02963 33.0933 8.78889 33.1927 8.47778C33.2992 8.16667 33.3773 7.78148 33.427 7.32222C33.4767 6.85556 33.5016 6.31482 33.5016 5.7V3.37778C33.5016 3.3037 33.5265 3.24074 33.5762 3.18889C33.6259 3.13704 33.6862 3.11111 33.7572 3.11111H38.4654C38.5435 3.11111 38.6074 3.13704 38.6571 3.18889C38.7068 3.24074 38.7317 3.30741 38.7317 3.38889V10.6222C38.7317 10.6963 38.7068 10.7593 38.6571 10.8111C38.6074 10.863 38.5435 10.8889 38.4654 10.8889H37.5067Z" fill="#06609A"/>
<path d="M39.9393 10.8889C39.8825 10.8889 39.8292 10.8667 39.7795 10.8222C39.7369 10.7778 39.7156 10.7222 39.7156 10.6556C39.7156 10.6259 39.7227 10.5926 39.7369 10.5556L42.304 3.38889C42.3253 3.31481 42.3644 3.25185 42.4212 3.2C42.4851 3.14074 42.5703 3.11111 42.6768 3.11111H43.8379C43.9444 3.11111 44.0261 3.14074 44.0829 3.2C44.1397 3.25185 44.1823 3.31481 44.2107 3.38889L46.7778 10.5556C46.7849 10.5926 46.7885 10.6259 46.7885 10.6556C46.7885 10.7222 46.7672 10.7778 46.7246 10.8222C46.6819 10.8667 46.6322 10.8889 46.5754 10.8889H45.6487C45.5493 10.8889 45.4747 10.8667 45.425 10.8222C45.3824 10.7704 45.354 10.7222 45.3398 10.6778L44.8392 9.32222H41.6756L41.1749 10.6778C41.1607 10.7222 41.1288 10.7704 41.0791 10.8222C41.0365 10.8667 40.9654 10.8889 40.866 10.8889H39.9393ZM42.0484 8.04444H44.4664L43.2521 4.61111L42.0484 8.04444Z" fill="#06609A"/>
<path d="M49.679 10.8889C49.6079 10.8889 49.5476 10.863 49.4979 10.8111C49.4482 10.7593 49.4233 10.6963 49.4233 10.6222V4.47778H47.4527C47.3817 4.47778 47.3213 4.45185 47.2716 4.4C47.2219 4.34815 47.1971 4.28519 47.1971 4.21111V3.38889C47.1971 3.30741 47.2219 3.24074 47.2716 3.18889C47.3213 3.13704 47.3817 3.11111 47.4527 3.11111H52.8852C52.9633 3.11111 53.0272 3.13704 53.0769 3.18889C53.1266 3.24074 53.1515 3.30741 53.1515 3.38889V4.21111C53.1515 4.28519 53.1266 4.34815 53.0769 4.4C53.0272 4.45185 52.9633 4.47778 52.8852 4.47778H50.9252V10.6222C50.9252 10.6963 50.9004 10.7593 50.8507 10.8111C50.801 10.863 50.737 10.8889 50.6589 10.8889H49.679Z" fill="#06609A"/>
<path d="M54.4879 10.8889C54.4169 10.8889 54.3566 10.8667 54.3069 10.8222C54.2571 10.7704 54.2323 10.7037 54.2323 10.6222V3.38889C54.2323 3.30741 54.2571 3.24074 54.3069 3.18889C54.3566 3.13704 54.4169 3.11111 54.4879 3.11111H55.4573C55.5354 3.11111 55.5957 3.13704 55.6383 3.18889C55.688 3.24074 55.7129 3.30741 55.7129 3.38889V6.25556H58.8552V3.38889C58.8552 3.30741 58.8801 3.24074 58.9298 3.18889C58.9795 3.13704 59.0398 3.11111 59.1109 3.11111H60.0695C60.1476 3.11111 60.2115 3.13704 60.2613 3.18889C60.311 3.24074 60.3358 3.30741 60.3358 3.38889V10.6222C60.3358 10.6963 60.311 10.7593 60.2613 10.8111C60.2115 10.863 60.1476 10.8889 60.0695 10.8889H59.1109C59.0398 10.8889 58.9795 10.863 58.9298 10.8111C58.8801 10.7593 58.8552 10.6963 58.8552 10.6222V7.64444H55.7129V10.6222C55.7129 10.6963 55.688 10.7593 55.6383 10.8111C55.5957 10.863 55.5354 10.8889 55.4573 10.8889H54.4879Z" fill="#06609A"/>
<path d="M64.8577 11C64.2257 11 63.6824 10.8926 63.228 10.6778C62.7735 10.4556 62.4184 10.1185 62.1628 9.66667C61.9071 9.20741 61.7687 8.63704 61.7474 7.95556C61.7403 7.63704 61.7367 7.32222 61.7367 7.01111C61.7367 6.7 61.7403 6.38148 61.7474 6.05556C61.7687 5.38148 61.9107 4.81852 62.1734 4.36667C62.4362 3.91482 62.7948 3.57407 63.2493 3.34444C63.7108 3.11481 64.247 3 64.8577 3C65.4684 3 66.0046 3.11481 66.4661 3.34444C66.9277 3.57407 67.2899 3.91482 67.5526 4.36667C67.8154 4.81852 67.9574 5.38148 67.9787 6.05556C67.9929 6.38148 68 6.7 68 7.01111C68 7.32222 67.9929 7.63704 67.9787 7.95556C67.9574 8.63704 67.8189 9.20741 67.5633 9.66667C67.3076 10.1185 66.949 10.4556 66.4874 10.6778C66.033 10.8926 65.4897 11 64.8577 11ZM64.8577 9.72222C65.3193 9.72222 65.6956 9.58148 65.9868 9.3C66.2779 9.01111 66.4342 8.54444 66.4555 7.9C66.4697 7.57407 66.4768 7.27407 66.4768 7C66.4768 6.71852 66.4697 6.41852 66.4555 6.1C66.4413 5.67037 66.3632 5.32222 66.2211 5.05556C66.0862 4.78148 65.9016 4.58519 65.6672 4.46667C65.4329 4.34074 65.1631 4.27778 64.8577 4.27778C64.5594 4.27778 64.2932 4.34074 64.0588 4.46667C63.8245 4.58519 63.6363 4.78148 63.4943 5.05556C63.3593 5.32222 63.2848 5.67037 63.2706 6.1C63.2635 6.41852 63.2599 6.71852 63.2599 7C63.2599 7.27407 63.2635 7.57407 63.2706 7.9C63.2919 8.54444 63.4481 9.01111 63.7393 9.3C64.0304 9.58148 64.4032 9.72222 64.8577 9.72222Z" fill="#06609A"/>
</svg>
