<svg width="28" height="27" viewBox="0 0 28 27" fill="none" xmlns="http://www.w3.org/2000/svg">
<path d="M27.163 1.70711C27.5535 1.31658 27.5535 0.683417 27.163 0.292893C26.7724 -0.0976306 26.1393 -0.0976315 25.7487 0.292893L13.7279 12.3137L1.70711 0.292893C1.31658 -0.0976309 0.683417 -0.0976306 0.292893 0.292893C-0.0976306 0.683417 -0.0976314 1.31658 0.292893 1.70711L12.3137 13.7279L0.999999 25.0416C0.609475 25.4322 0.609475 26.0653 0.999999 26.4558C1.39052 26.8464 2.02369 26.8464 2.41421 26.4558L13.7279 15.1421L25.0416 26.4558C25.4322 26.8464 26.0653 26.8464 26.4558 26.4558C26.8464 26.0653 26.8464 25.4322 26.4558 25.0416L15.1421 13.7279L27.163 1.70711Z" fill="#2E2E2E"/>
</svg>
