<svg width="27" height="18" viewBox="0 0 27 18" fill="none" xmlns="http://www.w3.org/2000/svg">
<path fill-rule="evenodd" clip-rule="evenodd" d="M0 2C0 1.17157 0.671573 0.5 1.5 0.5H25.5C26.3284 0.5 27 1.17157 27 2C27 2.82843 26.3284 3.5 25.5 3.5H1.5C0.671574 3.5 0 2.82843 0 2ZM0 9C0 8.17157 0.671573 7.5 1.5 7.5H25.5C26.3284 7.5 27 8.17157 27 9C27 9.82843 26.3284 10.5 25.5 10.5H1.5C0.671574 10.5 0 9.82843 0 9ZM1.5 14.5C0.671573 14.5 0 15.1716 0 16C0 16.8284 0.671574 17.5 1.5 17.5H25.5C26.3284 17.5 27 16.8284 27 16C27 15.1716 26.3284 14.5 25.5 14.5H1.5Z" fill="white"/>
</svg>
