<svg width="34" height="34" viewBox="0 0 34 34" fill="none" xmlns="http://www.w3.org/2000/svg">
<g clip-path="url(#clip0_14_53)">
<path d="M20.5627 27.5206L18.4414 29.6419C18.2453 29.8396 18.01 29.9942 17.7507 30.0958C17.4913 30.1973 17.2137 30.2436 16.9354 30.2316C16.6572 30.2196 16.3845 30.1497 16.1349 30.0262C15.8852 29.9027 15.6641 29.7285 15.4857 29.5146C13.5462 27.1023 12.1997 24.2687 11.5542 21.2415C10.9313 18.4473 10.9313 15.5503 11.5542 12.7562C12.2039 9.71648 13.5604 6.87254 15.514 4.45477C15.6919 4.24156 15.9122 4.06773 16.1609 3.94433C16.4096 3.82093 16.6813 3.75068 16.9587 3.73804C17.2361 3.7254 17.513 3.77066 17.772 3.87092C18.0309 3.97119 18.2661 4.12427 18.4626 4.32042L20.5839 6.44174C20.9305 6.78153 21.1416 7.23573 21.1781 7.71969C21.2145 8.20365 21.0737 8.68435 20.7819 9.07218C20.1926 9.84058 19.6921 10.6732 19.2899 11.5541C19.132 11.9024 18.8775 12.198 18.5567 12.406C18.2359 12.6141 17.8621 12.7258 17.4797 12.7279H15.6837C14.92 15.5048 14.92 18.4363 15.6837 21.2132H17.4797C17.8621 21.2153 18.2359 21.327 18.5567 21.5351C18.8775 21.7431 19.132 22.0388 19.2899 22.387C19.6921 23.2679 20.1926 24.1005 20.7819 24.8689C21.077 25.2609 21.2176 25.7476 21.1772 26.2365C21.1368 26.7254 20.9181 27.1824 20.5627 27.5206Z" stroke="white" stroke-width="2" stroke-linecap="round" stroke-linejoin="round"/>
</g>
<defs>
<clipPath id="clip0_14_53">
<rect x="16.9707" width="24" height="24" transform="rotate(45 16.9707 0)" fill="white"/>
</clipPath>
</defs>
</svg>
