<svg width="40" height="43" viewBox="0 0 40 43" fill="none" xmlns="http://www.w3.org/2000/svg">
<g filter="url(#filter0_di_1_177)">
<rect width="40" height="40" rx="2" transform="matrix(-1 0 0 1 40 0)" fill="url(#paint0_linear_1_177)" shape-rendering="crispEdges"/>
<path d="M30.5 19.3C30.8866 19.3 31.2 19.6134 31.2 20C31.2 20.3866 30.8866 20.7 30.5 20.7L30.5 19.3ZM9.5 20L16.5 15.9585L16.5 24.0415L9.5 20ZM30.5 20.7L15.8 20.7L15.8 19.3L30.5 19.3L30.5 20.7Z" fill="white"/>
<rect x="-0.5" y="0.5" width="39" height="39" rx="1.5" transform="matrix(-1 0 0 1 39 0)" stroke="white" stroke-opacity="0.1" shape-rendering="crispEdges"/>
</g>
<defs>
<filter id="filter0_di_1_177" x="0" y="0" width="40" height="43" filterUnits="userSpaceOnUse" color-interpolation-filters="sRGB">
<feFlood flood-opacity="0" result="BackgroundImageFix"/>
<feColorMatrix in="SourceAlpha" type="matrix" values="0 0 0 0 0 0 0 0 0 0 0 0 0 0 0 0 0 0 127 0" result="hardAlpha"/>
<feOffset dy="3"/>
<feComposite in2="hardAlpha" operator="out"/>
<feColorMatrix type="matrix" values="0 0 0 0 0.908333 0 0 0 0 0.476875 0 0 0 0 0.0454167 0 0 0 0.8 0"/>
<feBlend mode="normal" in2="BackgroundImageFix" result="effect1_dropShadow_1_177"/>
<feBlend mode="normal" in="SourceGraphic" in2="effect1_dropShadow_1_177" result="shape"/>
<feColorMatrix in="SourceAlpha" type="matrix" values="0 0 0 0 0 0 0 0 0 0 0 0 0 0 0 0 0 0 127 0" result="hardAlpha"/>
<feOffset/>
<feGaussianBlur stdDeviation="5.5"/>
<feComposite in2="hardAlpha" operator="arithmetic" k2="-1" k3="1"/>
<feColorMatrix type="matrix" values="0 0 0 0 1 0 0 0 0 1 0 0 0 0 1 0 0 0 0.4 0"/>
<feBlend mode="overlay" in2="shape" result="effect2_innerShadow_1_177"/>
</filter>
<linearGradient id="paint0_linear_1_177" x1="37.2145" y1="12.0931" x2="1.22813" y2="12.2601" gradientUnits="userSpaceOnUse">
<stop stop-color="#FA9632"/>
<stop offset="1" stop-color="#FAB632"/>
</linearGradient>
</defs>
</svg>
