<svg width="41" height="40" viewBox="0 0 41 40" fill="none" xmlns="http://www.w3.org/2000/svg">
<g filter="url(#filter0_i_1_311)">
<rect width="40" height="40" rx="2" transform="matrix(-1 0 0 1 40.5 0)" fill="url(#paint0_linear_1_311)"/>
<path d="M31 19.3C31.3866 19.3 31.7 19.6134 31.7 20C31.7 20.3866 31.3866 20.7 31 20.7L31 19.3ZM10 20L17 15.9585L17 24.0415L10 20ZM31 20.7L16.3 20.7L16.3 19.3L31 19.3L31 20.7Z" fill="white"/>
<rect x="-0.5" y="0.5" width="39" height="39" rx="1.5" transform="matrix(-1 0 0 1 39.5 0)" stroke="white" stroke-opacity="0.1"/>
</g>
<defs>
<filter id="filter0_i_1_311" x="0.5" y="0" width="40" height="40" filterUnits="userSpaceOnUse" color-interpolation-filters="sRGB">
<feFlood flood-opacity="0" result="BackgroundImageFix"/>
<feBlend mode="normal" in="SourceGraphic" in2="BackgroundImageFix" result="shape"/>
<feColorMatrix in="SourceAlpha" type="matrix" values="0 0 0 0 0 0 0 0 0 0 0 0 0 0 0 0 0 0 127 0" result="hardAlpha"/>
<feOffset/>
<feGaussianBlur stdDeviation="5.5"/>
<feComposite in2="hardAlpha" operator="arithmetic" k2="-1" k3="1"/>
<feColorMatrix type="matrix" values="0 0 0 0 1 0 0 0 0 1 0 0 0 0 1 0 0 0 0.4 0"/>
<feBlend mode="overlay" in2="shape" result="effect1_innerShadow_1_311"/>
</filter>
<linearGradient id="paint0_linear_1_311" x1="37.2145" y1="12.0931" x2="1.22813" y2="12.2601" gradientUnits="userSpaceOnUse">
<stop stop-color="#FA9632"/>
<stop offset="1" stop-color="#FAB632"/>
</linearGradient>
</defs>
</svg>
