<svg width="21" height="19" viewBox="0 0 21 19" fill="none" xmlns="http://www.w3.org/2000/svg">
<path d="M0.850701 9.15094L5.4488 10.8655L7.24126 16.6326C7.3192 17.0222 7.7868 17.1002 8.09854 16.8664L10.6703 14.7622C10.9041 14.5284 11.2938 14.5284 11.6055 14.7622L16.2036 18.1133C16.5154 18.3471 16.983 18.1912 17.0609 17.8016L20.49 1.43551C20.5679 1.04584 20.1782 0.656179 19.7886 0.812046L0.850701 8.1378C0.3831 8.29367 0.3831 8.99507 0.850701 9.15094ZM7.00747 10.0082L16.0477 4.47492C16.2036 4.39699 16.3595 4.63079 16.2036 4.70872L8.79993 11.6448C8.56613 11.8786 8.33233 12.1903 8.33233 12.58L8.09854 14.4504C8.09854 14.6842 7.70886 14.7622 7.63093 14.4504L6.69572 11.0213C6.46192 10.6317 6.6178 10.1641 7.00747 10.0082Z" fill="white"/>
</svg>
