<svg width="22" height="13" viewBox="0 0 22 13" fill="none" xmlns="http://www.w3.org/2000/svg">
<path d="M21.2394 11.3153C21.2394 11.2323 21.1563 11.2323 21.1563 11.1493C20.8242 10.4851 20.077 9.65488 19.0808 8.74162C18.5826 8.32651 18.3336 7.99441 18.1675 7.82837C17.9184 7.49627 17.9185 7.24721 18.0015 6.91512C18.0845 6.66605 18.4166 6.25093 18.9977 5.50372C19.3298 5.08861 19.4959 4.83955 19.7449 4.59048C20.9903 2.93002 21.5714 1.85071 21.4054 1.35258L21.3224 1.26956C21.2394 1.18654 21.1563 1.10352 20.9903 1.10352C20.8242 1.02049 20.5752 1.02049 20.3261 1.10352H17.1712C17.0882 1.10352 17.0882 1.10352 16.9222 1.10352C16.8391 1.10352 16.7561 1.10352 16.7561 1.10352H16.6731H16.5901L16.5071 1.18653C16.424 1.26956 16.424 1.26955 16.424 1.35258C16.0919 2.26583 15.6768 3.01303 15.2617 3.84326C15.0126 4.25838 14.7636 4.6735 14.5145 5.00559C14.2654 5.33768 14.0994 5.58675 13.9333 5.75279C13.7673 5.91884 13.6012 6.00186 13.5182 6.16791C13.4352 6.25093 13.2692 6.33396 13.2692 6.25094C13.1861 6.25094 13.1031 6.25093 13.1031 6.16791C13.0201 6.08489 12.9371 6.00186 12.854 5.91884C12.771 5.83581 12.771 5.66977 12.688 5.50372C12.688 5.33768 12.688 5.17163 12.688 5.08861C12.688 5.00558 12.688 4.75652 12.688 4.59048C12.688 4.34141 12.688 4.17536 12.688 4.09233C12.688 3.84327 12.688 3.51118 12.688 3.17909C12.688 2.847 12.688 2.59792 12.688 2.43188C12.688 2.26583 12.688 2.01676 12.688 1.85072C12.688 1.60165 12.688 1.4356 12.688 1.35258C12.688 1.26955 12.605 1.10351 12.605 1.02049C12.522 0.937466 12.4389 0.854441 12.3559 0.771418C12.2729 0.688395 12.1068 0.688397 12.0238 0.605374C11.6087 0.522351 11.1106 0.439331 10.5294 0.439331C9.20105 0.439331 8.28779 0.522357 7.9557 0.688402C7.78965 0.771425 7.62361 0.854443 7.54058 1.02049C7.37454 1.18653 7.37453 1.26956 7.45756 1.26956C7.87267 1.35258 8.20477 1.51862 8.37081 1.76769L8.45384 1.93375C8.53686 2.01677 8.53685 2.18281 8.61987 2.43188C8.7029 2.68095 8.7029 2.93001 8.7029 3.26211C8.7029 3.76024 8.7029 4.25839 8.7029 4.59048C8.7029 5.00559 8.61987 5.25465 8.61987 5.50372C8.61987 5.75279 8.53686 5.91884 8.45384 6.00186C8.37082 6.16791 8.37081 6.25094 8.28779 6.25094C8.28779 6.25094 8.28778 6.33395 8.20476 6.33395C8.12173 6.33395 8.03872 6.41698 7.87267 6.41698C7.78965 6.41698 7.62361 6.33396 7.54058 6.25094C7.37454 6.16791 7.20849 6.00187 7.12547 5.83582C6.95942 5.66978 6.79337 5.4207 6.62733 5.08861C6.46128 4.75652 6.2122 4.42443 6.04616 3.92629L5.88013 3.5942C5.7971 3.42816 5.63106 3.09606 5.46501 2.68095C5.29896 2.26583 5.13291 1.93375 4.96687 1.51863C4.88385 1.35259 4.80083 1.26956 4.71781 1.18653H4.63478C4.63478 1.18653 4.55175 1.10352 4.46873 1.10352C4.3857 1.10352 4.30269 1.02049 4.21967 1.02049H1.23084C0.898745 1.02049 0.732701 1.10351 0.649678 1.18653L0.56665 1.26956C0.56665 1.26956 0.56665 1.35258 0.56665 1.4356C0.56665 1.51863 0.566655 1.60164 0.649678 1.76769C1.06479 2.76397 1.56293 3.76025 2.06107 4.75652C2.5592 5.66977 3.05735 6.5 3.38944 7.08117C3.80455 7.66233 4.13664 8.24349 4.55175 8.74162C4.96687 9.23976 5.21593 9.57185 5.29895 9.7379C5.465 9.90394 5.54802 9.98696 5.63104 10.07L5.88013 10.3191C6.04617 10.4851 6.29524 10.7342 6.62733 10.9832C6.95942 11.2323 7.37453 11.4814 7.78964 11.7304C8.20476 11.9795 8.7029 12.1456 9.20104 12.3116C9.7822 12.4777 10.2803 12.5607 10.7785 12.4777H12.0238C12.2729 12.4777 12.4389 12.3946 12.605 12.2286L12.688 12.1456C12.688 12.0625 12.771 12.0625 12.771 11.9795C12.771 11.8965 12.771 11.8135 12.771 11.6474C12.771 11.3153 12.771 11.0663 12.854 10.8172C12.9371 10.5681 12.9371 10.4021 13.0201 10.236C13.1031 10.07 13.1861 9.98696 13.2692 9.90394C13.3522 9.82092 13.4352 9.7379 13.4352 9.7379H13.5182C13.6843 9.65487 13.9333 9.73789 14.0994 9.90394C14.3485 10.07 14.5975 10.3191 14.7636 10.5681C14.9296 10.8172 15.1787 11.0663 15.5108 11.3984C15.8429 11.7304 16.0919 11.9795 16.258 12.0625L16.5071 12.2286C16.6731 12.3116 16.8392 12.3946 17.0882 12.4777C17.3373 12.5607 17.5033 12.5607 17.6694 12.5607L20.4922 12.4777C20.7412 12.4777 20.9903 12.3946 21.1563 12.3116C21.3224 12.2286 21.4054 12.1456 21.4054 11.9795C21.4054 11.8965 21.4054 11.7304 21.4054 11.6474C21.2394 11.4814 21.2394 11.3983 21.2394 11.3153Z" fill="white"/>
</svg>
